# xmcd
#
# Track frame offsets: 
#        222
#        6145
#        12420
#        23050
#        31460
#        38867
#        43235
#        49647
#        65775
#        84612
#        90010
#        95395
#        101415
#        152832
#        227070
#        262655
#        273875
#        281112
#        293895
#        300142
#        307997
#
# Disc length: 4257 seconds
#
# Revision: 5
# Processed by: cddbd v1.5.2PL0 Copyright (c) Steve Scherf et al.
# Submitted via: ExactAudioCopy v0.99pb4
#
DISCID=04109f15
DTITLE=King's College Choir, Cambridge - Sir David Willcocks - Britten
DTITLE=Choral Music
DYEAR=1972
DGENRE=Choral
TTITLE0=A Ceremony of Carols, Op.28: I. Procession
TTITLE1=A Ceremony of Carols, Op.28: II. Wolcum Yole!
TTITLE2=A Ceremony of Carols, Op.28: III. There Is No Rose
TTITLE3=A Ceremony of Carols, Op.28: IV. That Yongë Child
TTITLE4=A Ceremony of Carols, Op.28: V. Balulalow
TTITLE5=A Ceremony of Carols, Op.28: VI. As Dew in Aprille
TTITLE6=A Ceremony of Carols, Op.28: VII. This Little Babe
TTITLE7=A Ceremony of Carols, Op.28: VIII. Interlude (harp solo)
TTITLE8=A Ceremony of Carols, Op.28: IX. In Freezing Winter Night
TTITLE9=A Ceremony of Carols, Op.28: X. Spring Carol
TTITLE10=A Ceremony of Carols, Op.28: XI. Deo Gracias
TTITLE11=A Ceremony of Carols, Op.28: XII. Recession
TTITLE12=Hymn to St. Cecilia, Op.27
TTITLE13=Rejoice in the Lamb, Op.30 (Festival Cantata)
TTITLE14=Te Deum in C
TTITLE15=Jubilate Deo
TTITLE16=Missa Brevis in D, Op.63: I. Kyrie
TTITLE17=Missa Brevis in D, Op.63: II. Gloria
TTITLE18=Missa Brevis in D, Op.63: III. Sanctus
TTITLE19=Missa Brevis in D, Op.63: IV. Benedictus
TTITLE20=Missa Brevis in D, Op.63: V. Agnus Dei
EXTD=YEAR: 1972
EXTT0=
EXTT1=
EXTT2=
EXTT3=
EXTT4=
EXTT5=
EXTT6=
EXTT7=
EXTT8=
EXTT9=
EXTT10=
EXTT11=
EXTT12=
EXTT13=
EXTT14=
EXTT15=
EXTT16=
EXTT17=
EXTT18=
EXTT19=
EXTT20=
PLAYORDER=
